{"title":"Vår tid är nu (2017) S01 E05 - 720p x265 HEVC - SWE (ENG SUBS)","magnet":"magnet:?xt=urn:btih:5c0022e652faece7cc25de0da014a90c0515f919&dn=Va%CC%8Ar+tid+a%CC%88r+nu+%282017%29+S01+E05+-+720p+x265+HEVC+-+SWE+%28ENG+SUBS%29&tr=udp%3A%2F%2Ftracker.leechers-paradise.org%3A6969&tr=udp%3A%2F%2Fzer0day.ch%3A1337&tr=udp%3A%2F%2Fopen.demonii.com%3A1337&tr=udp%3A%2F%2Ftracker.coppersurfer.tk%3A6969&tr=udp%3A%2F%2Fexodus.desync.com%3A6969","uploader":"BRSHNKV","categoryP":"video","categoryS":"hd___tv_shows","size":"373105966","seeders":"0","leechers":"0","description":"Tech:\r\n\r\nFormat : MPEG-4\r\nFormat profile : Base Media / Version 2\r\nCodec ID : mp42\r\nFile size : 356 MiB\r\nDuration : 57mn 5s\r\nOverall bit rate mode : Variable\r\nOverall bit rate : 871 Kbps\r\nMovie name : Va&#x30A;r tid a&#x308;r nu S01 E05 - 720p x265 HEVC [BRSHNKV]\r\nEncoded date : UTC 2017-12-11 14:12:10\r\nTagged date : UTC 2017-12-11 14:12:10\r\nWriting application : HandBrake 20160211184813-ffd8cb1-master 2016021301\r\n\r\nVideo\r\nID : 1\r\nFormat : HEVC\r\nFormat/Info : High Efficiency Video Coding\r\nFormat profile : Main [email protected]@Main\r\nCodec ID : hev1\r\nCodec ID/Info : High Efficiency Video Coding\r\nDuration : 57mn 5s\r\nBit rate : 700 Kbps\r\nWidth : 1 280 pixels\r\nHeight : 720 pixels\r\nDisplay aspect ratio : 16:9\r\nFrame rate mode : Constant\r\nFrame rate : 25.000 fps\r\nColor space : YUV\r\nChroma subsampling : 4:2:0\r\nBit depth : 10 bits\r\nBits/(Pixel*Frame) : 0.030\r\nStream size : 286 MiB (80%)\r\nWriting library : x265 1.9:[Mac OS X][clang 7.0.2][64 bit] 10bit\r\nEncoded date : UTC 2017-12-11 14:12:10\r\nTagged date : UTC 2017-12-11 14:12:10\r\nColor range : Limited\r\nColor primaries : BT.709\r\nTransfer characteristics : BT.709\r\nMatrix coefficients : BT.709\r\n\r\nAudio\r\nID : 2\r\nFormat : AAC\r\nFormat/Info : Advanced Audio Codec\r\nFormat profile : LC\r\nCodec ID : 40\r\nDuration : 57mn 5s\r\nBit rate mode : Variable\r\nBit rate : 165 Kbps\r\nChannel(s) : 2 channels\r\nChannel positions : Front: L R\r\nSampling rate : 48.0 KHz\r\nCompression mode : Lossy\r\nStream size : 67.2 MiB (19%)\r\nTitle : Stereo / Stereo\r\nLanguage : Swedish\r\nEncoded date : UTC 2017-12-11 14:12:10\r\nTagged date : UTC 2017-12-11 14:12:10","last_updated":"2017-12-12T12:00:50.810Z","parsed":{"xt":"urn:btih:5c0022e652faece7cc25de0da014a90c0515f919","dn":"Vår tid är nu (2017) S01 E05 - 720p x265 HEVC - SWE (ENG SUBS)","tr":["udp://exodus.desync.com:6969","udp://open.demonii.com:1337","udp://tracker.coppersurfer.tk:6969","udp://tracker.leechers-paradise.org:6969","udp://zer0day.ch:1337"],"infoHash":"5c0022e652faece7cc25de0da014a90c0515f919","infoHashBuffer":{"type":"Buffer","data":[92,0,34,230,82,250,236,231,204,37,222,13,160,20,169,12,5,21,249,25]},"name":"Vår tid är nu (2017) S01 E05 - 720p x265 HEVC - SWE (ENG SUBS)","announce":["udp://exodus.desync.com:6969","udp://open.demonii.com:1337","udp://tracker.coppersurfer.tk:6969","udp://tracker.leechers-paradise.org:6969","udp://zer0day.ch:1337"],"urlList":[]}}